<svg width="14" height="14" viewBox="0 0 14 14" fill="none" xmlns="http://www.w3.org/2000/svg">
<path fill-rule="evenodd" clip-rule="evenodd" d="M1.22457 7.0001C1.22457 3.81065 3.81012 1.2251 6.99955 1.2251C10.189 1.2251 12.7745 3.81065 12.7745 7.0001C12.7745 10.1895 10.189 12.7751 6.99955 12.7751C3.81012 12.7751 1.22457 10.1895 1.22457 7.0001ZM5.32912 4.58721C5.12409 4.38219 4.79168 4.38219 4.58666 4.58721C4.38163 4.79224 4.38163 5.12465 4.58666 5.32968L6.25709 7.00011L4.58666 8.67055C4.38163 8.87557 4.38163 9.20799 4.58666 9.41301C4.79168 9.61804 5.12409 9.61804 5.32912 9.41301L6.99955 7.74257L8.66998 9.41301C8.875 9.61804 9.20741 9.61804 9.41244 9.41301C9.61746 9.20799 9.61746 8.87557 9.41244 8.67055L7.74201 7.00011L9.41244 5.32968C9.61746 5.12465 9.61746 4.79224 9.41244 4.58721C9.20741 4.38219 8.875 4.38219 8.66998 4.58721L6.99955 6.25765L5.32912 4.58721Z" fill="#F7F7F8"/>
</svg>
