<svg width="24" height="24" viewBox="0 0 24 24" fill="none" xmlns="http://www.w3.org/2000/svg">
<path fill-rule="evenodd" clip-rule="evenodd" d="M15.9887 3.82152C17.1455 2.66464 19.0212 2.66464 20.1781 3.82152C21.335 4.97841 21.335 6.8541 20.1781 8.01098L7.55314 20.636C7.38436 20.8048 7.15544 20.8996 6.91675 20.8996H4.00009C3.50304 20.8996 3.1001 20.4966 3.1001 19.9996V17.0829C3.1001 16.8442 3.19492 16.6153 3.3637 16.4465L15.9887 3.82152ZM18.9053 5.09432C18.4514 4.64037 17.7154 4.64037 17.2614 5.09431L4.90009 17.4557V19.0996H6.54396L18.9053 6.73819C19.3592 6.28425 19.3592 5.54826 18.9053 5.09432Z" fill="#37383C" fill-opacity="0.61"/>
</svg>
