<svg width="22" height="22" viewBox="0 0 22 22" fill="none" xmlns="http://www.w3.org/2000/svg">
<path d="M11 1.84961C16.0532 1.84983 20.1504 5.94674 20.1504 11C20.1502 16.0531 16.0531 20.1502 11 20.1504C5.94674 20.1504 1.84982 16.0532 1.84961 11C1.84961 5.9466 5.94661 1.84961 11 1.84961ZM11 13.666C10.4478 13.666 10.0001 14.1139 10 14.666C10 15.2183 10.4477 15.666 11 15.666C11.5521 15.6658 12 15.2181 12 14.666C11.9999 14.114 11.552 13.6663 11 13.666ZM11 6.43262C10.503 6.43269 10.0996 6.83599 10.0996 7.33301V11.458C10.0996 11.955 10.503 12.3583 11 12.3584C11.4968 12.3581 11.9004 11.9549 11.9004 11.458V7.33301C11.9004 6.83611 11.4968 6.43288 11 6.43262Z" fill="#171719"/>
<path fill-rule="evenodd" clip-rule="evenodd" d="M1.92561 11.0008C1.92561 5.9888 5.98861 1.92578 11.0006 1.92578C16.0125 1.92578 20.0755 5.9888 20.0755 11.0008C20.0755 16.0128 16.0125 20.0758 11.0006 20.0758C5.98861 20.0758 1.92561 16.0128 1.92561 11.0008ZM11.0007 6.50903C11.4563 6.50903 11.8257 6.87839 11.8257 7.33403V11.459C11.8257 11.9147 11.4563 12.284 11.0007 12.284C10.545 12.284 10.1757 11.9147 10.1757 11.459V7.33403C10.1757 6.87839 10.545 6.50903 11.0007 6.50903ZM11.9172 14.6674C11.9172 15.1736 11.5068 15.584 11.0006 15.584C10.4943 15.584 10.0839 15.1736 10.0839 14.6674C10.0839 14.1611 10.4943 13.7507 11.0006 13.7507C11.5068 13.7507 11.9172 14.1611 11.9172 14.6674Z" fill="#FF6363"/>
</svg>
