<svg width="22" height="22" viewBox="0 0 22 22" fill="none" xmlns="http://www.w3.org/2000/svg">
<path fill-rule="evenodd" clip-rule="evenodd" d="M1.92573 11.0008C1.92573 5.9888 5.98873 1.92578 11.0007 1.92578C16.0127 1.92578 20.0757 5.9888 20.0757 11.0008C20.0757 16.0128 16.0127 20.0758 11.0007 20.0758C5.98873 20.0758 1.92573 16.0128 1.92573 11.0008ZM15.2602 9.05363C15.577 8.72624 15.5685 8.20395 15.2411 7.88706C14.9137 7.57018 14.3915 7.57869 14.0746 7.90608L9.78829 12.3345L7.92763 10.4069C7.61119 10.0791 7.08891 10.0698 6.76109 10.3863C6.43327 10.7027 6.42405 11.225 6.74049 11.5528L9.19391 14.0945C9.34924 14.2554 9.56326 14.3464 9.78692 14.3465C10.0106 14.3467 10.2247 14.256 10.3803 14.0953L15.2602 9.05363Z" fill="#1ED45A"/>
</svg>
