<svg width="16" height="24" viewBox="0 0 16 24" fill="none" xmlns="http://www.w3.org/2000/svg">
<mask id="mask0_252_26628" style="mask-type:alpha" maskUnits="userSpaceOnUse" x="0" y="0" width="16" height="24">
<rect width="16" height="24" fill="#D9D9D9"/>
</mask>
<g mask="url(#mask0_252_26628)">
<path d="M7.61015 13.8331L5.03716 11.2603C5.00178 11.2248 4.97388 11.1851 4.95347 11.1413C4.93306 11.0976 4.92285 11.0507 4.92285 11.0007C4.92285 10.9006 4.95667 10.8137 5.0243 10.7398C5.09193 10.666 5.18107 10.6292 5.2917 10.6292H10.712C10.8227 10.6292 10.9118 10.6664 10.9794 10.741C11.0471 10.8154 11.0809 10.9023 11.0809 11.0017C11.0809 11.0266 11.0427 11.1128 10.9664 11.2603L8.39357 13.8331C8.33451 13.8923 8.27341 13.9355 8.21027 13.9627C8.14713 13.9899 8.07766 14.0035 8.00186 14.0035C7.92606 14.0035 7.85659 13.9899 7.79345 13.9627C7.73031 13.9355 7.66921 13.8923 7.61015 13.8331Z" fill="#1C1B1F"/>
</g>
</svg>
