<svg width="19" height="19" viewBox="0 0 19 19" fill="none" xmlns="http://www.w3.org/2000/svg">
<mask id="mask0_664_11367" style="mask-type:alpha" maskUnits="userSpaceOnUse" x="0" y="0" width="19" height="19">
<rect x="0.25" y="0.5" width="18" height="18" fill="#D9D9D9"/>
</mask>
<g mask="url(#mask0_664_11367)">
<path d="M13.5059 12.2332C13.5059 13.4512 13.0821 14.4876 12.2345 15.3425C11.387 16.1975 10.3553 16.625 9.13944 16.625C7.92356 16.625 6.89062 16.1975 6.04062 15.3425C5.19062 14.4876 4.76562 13.4512 4.76562 12.2332V5.49031C4.76562 4.62494 5.06613 3.88938 5.66713 3.28363C6.268 2.67788 7.00113 2.375 7.8665 2.375C8.73188 2.375 9.46506 2.67788 10.0661 3.28363C10.6671 3.88938 10.9676 4.62494 10.9676 5.49031V11.8726C10.9676 12.3803 10.7908 12.8136 10.4371 13.1728C10.0834 13.5319 9.65238 13.7114 9.14413 13.7114C8.63575 13.7114 8.202 13.5331 7.84288 13.1765C7.48375 12.8199 7.30419 12.3853 7.30419 11.8726V5.85106C7.30419 5.69169 7.35806 5.55806 7.46581 5.45019C7.57369 5.34244 7.70738 5.28856 7.86688 5.28856C8.02625 5.28856 8.15981 5.34244 8.26756 5.45019C8.37519 5.55806 8.429 5.69169 8.429 5.85106V11.8726C8.429 12.0736 8.49656 12.2429 8.63169 12.3804C8.76681 12.5179 8.93488 12.5866 9.13588 12.5866C9.33675 12.5866 9.50475 12.5179 9.63988 12.3804C9.775 12.2429 9.84256 12.0736 9.84256 11.8726V5.48319C9.83481 4.92931 9.64244 4.46031 9.26544 4.07619C8.88844 3.69206 8.42213 3.5 7.8665 3.5C7.31325 3.5 6.84562 3.69325 6.46362 4.07975C6.08162 4.46637 5.89062 4.93656 5.89062 5.49031V12.2332C5.88287 13.1399 6.19631 13.9111 6.83094 14.5466C7.46556 15.1822 8.23594 15.5 9.14206 15.5C10.0353 15.5 10.7946 15.1822 11.42 14.5466C12.0453 13.9111 12.3656 13.1399 12.3809 12.2332V5.85106C12.3809 5.69169 12.4349 5.55806 12.5427 5.45019C12.6506 5.34244 12.7843 5.28856 12.9438 5.28856C13.1032 5.28856 13.2368 5.34244 13.3445 5.45019C13.4521 5.55806 13.5059 5.69169 13.5059 5.85106V12.2332Z" fill="#37383C" fill-opacity="0.61"/>
</g>
</svg>
