<svg viewBox="0 0 22 22" fill="none" xmlns="http://www.w3.org/2000/svg">
<path fill-rule="evenodd" clip-rule="evenodd" d="M1.92475 11C1.92475 5.98807 5.98775 1.92505 10.9997 1.92505C16.0117 1.92505 20.0747 5.98807 20.0747 11C20.0747 16.012 16.0117 20.075 10.9997 20.075C5.98775 20.075 1.92475 16.012 1.92475 11ZM8.37475 7.20838C8.05257 6.88619 7.53021 6.88619 7.20802 7.20837C6.88584 7.53056 6.88584 8.05292 7.20802 8.3751L9.83298 11.0001L7.20802 13.625C6.88584 13.9472 6.88584 14.4696 7.20802 14.7918C7.53021 15.1139 8.05257 15.1139 8.37475 14.7918L10.9997 12.1668L13.6247 14.7918C13.9468 15.1139 14.4692 15.1139 14.7914 14.7918C15.1136 14.4696 15.1136 13.9472 14.7914 13.625L12.1664 11.0001L14.7914 8.3751C15.1136 8.05292 15.1136 7.53056 14.7914 7.20837C14.4692 6.88619 13.9468 6.88619 13.6247 7.20838L10.9997 9.83334L8.37475 7.20838Z" fill="#37383C" fill-opacity="var(--fill-opacity, 0.28)"/>
</svg>
