<svg width="25" height="24" viewBox="0 0 25 24" fill="none" xmlns="http://www.w3.org/2000/svg">
<path d="M5.3637 4.86321C5.71517 4.51174 6.28502 4.51174 6.63649 4.86321L12.5001 10.7268L18.3637 4.86321C18.7151 4.51174 19.285 4.51174 19.6364 4.86321C19.9879 5.21468 19.9879 5.78453 19.6365 6.13601L13.7729 11.9996L19.6365 17.8632C19.9879 18.2147 19.9879 18.7845 19.6364 19.136C19.285 19.4875 18.7151 19.4875 18.3637 19.136L12.5001 13.2724L6.63649 19.136C6.28502 19.4875 5.71517 19.4875 5.3637 19.136C5.01223 18.7845 5.01223 18.2147 5.3637 17.8632L11.2273 11.9996L5.3637 6.13601C5.01223 5.78453 5.01223 5.21468 5.3637 4.86321Z" fill="#171719"/>
</svg>
