<svg width="24" height="25" viewBox="0 0 24 25" fill="none" xmlns="http://www.w3.org/2000/svg">
<path d="M4.86346 5.36346C5.21493 5.01199 5.78477 5.01199 6.13625 5.36346L11.9998 11.2271L17.8634 5.36346C18.2149 5.01199 18.7847 5.01199 19.1362 5.36346C19.4877 5.71493 19.4877 6.28478 19.1362 6.63625L13.2726 12.4999L19.1362 18.3635C19.4877 18.7149 19.4877 19.2848 19.1362 19.6363C18.7847 19.9877 18.2149 19.9877 17.8634 19.6363L11.9998 13.7727L6.13625 19.6363C5.78477 19.9877 5.21493 19.9877 4.86346 19.6363C4.51199 19.2848 4.51199 18.7149 4.86346 18.3635L10.727 12.4999L4.86346 6.63625C4.51199 6.28478 4.51199 5.71493 4.86346 5.36346Z" fill="#171719"/>
</svg>
