<svg width="24" height="24" viewBox="0 0 24 24" fill="none" xmlns="http://www.w3.org/2000/svg">
<path d="M10.0001 10.6005C10.4971 10.6005 10.9001 11.0035 10.9001 11.5005V16.5005C10.9001 16.9976 10.4971 17.4005 10.0001 17.4005C9.50303 17.4005 9.10009 16.9976 9.10009 16.5005V11.5005C9.10009 11.0035 9.50303 10.6005 10.0001 10.6005Z" fill="#FF4242"/>
<path d="M14.0001 10.6005C14.4971 10.6005 14.9001 11.0035 14.9001 11.5005V16.5005C14.9001 16.9976 14.4971 17.4005 14.0001 17.4005C13.503 17.4005 13.1001 16.9976 13.1001 16.5005V11.5005C13.1001 11.0035 13.503 10.6005 14.0001 10.6005Z" fill="#FF4242"/>
<path fill-rule="evenodd" clip-rule="evenodd" d="M20 5.8509H16.3999C16.3999 5.3502 16.3987 4.92168 16.3697 4.56712C16.3379 4.17796 16.2683 3.79937 16.0838 3.43743C15.8058 2.89176 15.3622 2.44812 14.8165 2.17009C14.4546 1.98567 14.076 1.91604 13.6868 1.88424C13.3164 1.85398 12.8653 1.85399 12.3354 1.854H11.6645C11.1347 1.85399 10.6835 1.85398 10.3131 1.88424C9.92389 1.91604 9.5453 1.98567 9.18337 2.17009C8.6377 2.44812 8.19406 2.89176 7.91603 3.43743C7.73161 3.79937 7.66198 4.17796 7.63018 4.56712C7.60121 4.92168 7.59998 5.3502 7.59994 5.8509H4.0001C3.50304 5.8509 3.1001 6.25384 3.1001 6.7509C3.1001 7.24796 3.50304 7.6509 4.0001 7.6509H4.6L4.59999 18.0873C4.59998 18.6171 4.59997 19.0683 4.63023 19.4388C4.66203 19.8279 4.73166 20.2065 4.91608 20.5684C5.19411 21.1141 5.63775 21.5578 6.18342 21.8358C6.54535 22.0202 6.92394 22.0898 7.3131 22.1216C7.68351 22.1519 8.13465 22.1519 8.66447 22.1519H15.3354C15.8652 22.1519 16.3164 22.1519 16.6868 22.1216C17.076 22.0898 17.4546 22.0202 17.8165 21.8358C18.3622 21.5578 18.8058 21.1141 19.0839 20.5684C19.2683 20.2065 19.3379 19.8279 19.3697 19.4388C19.4 19.0683 19.4 18.6171 19.4 18.0873V7.6509H20C20.4971 7.6509 20.9 7.24796 20.9 6.7509C20.9 6.25384 20.4971 5.8509 20 5.8509ZM14.6003 5.8509H9.40029V5.54488C9.40029 4.73032 9.41139 4.53649 9.45413 4.40497C9.56294 4.07008 9.82549 3.80753 10.1604 3.69872C10.2919 3.65599 10.4857 3.64489 11.3003 3.64489H12.7003C13.5148 3.64489 13.7087 3.65599 13.8402 3.69872C14.1751 3.80753 14.4376 4.07008 14.5464 4.40497C14.5892 4.53649 14.6003 4.73032 14.6003 5.54489V5.8509ZM6.40032 18.4455V7.6509H17.6003V18.4455C17.6003 19.26 17.5892 19.4539 17.5464 19.5854C17.4376 19.9203 17.1751 20.1828 16.8402 20.2916C16.7087 20.3344 16.5149 20.3455 15.7003 20.3455H8.30031C7.48575 20.3455 7.29192 20.3344 7.1604 20.2916C6.82552 20.1828 6.56297 19.9203 6.45416 19.5854C6.41142 19.4539 6.40032 19.26 6.40032 18.4455Z" fill="#FF4242"/>
</svg>
