<svg width="18" height="19" viewBox="0 0 18 19" fill="none" xmlns="http://www.w3.org/2000/svg">
<mask id="mask0_226_20975" style="mask-type:alpha" maskUnits="userSpaceOnUse" x="0" y="0" width="18" height="19">
<rect y="0.5" width="18" height="18" fill="#D9D9D9"/>
</mask>
<g mask="url(#mask0_226_20975)">
<path d="M13.2559 12.2332C13.2559 13.4512 12.8321 14.4876 11.9845 15.3425C11.137 16.1975 10.1053 16.625 8.88944 16.625C7.67356 16.625 6.64062 16.1975 5.79062 15.3425C4.94062 14.4876 4.51562 13.4512 4.51562 12.2332V5.49031C4.51562 4.62494 4.81613 3.88938 5.41713 3.28363C6.018 2.67788 6.75113 2.375 7.6165 2.375C8.48188 2.375 9.21506 2.67788 9.81606 3.28363C10.4171 3.88938 10.7176 4.62494 10.7176 5.49031V11.8726C10.7176 12.3803 10.5408 12.8136 10.1871 13.1728C9.83338 13.5319 9.40238 13.7114 8.89413 13.7114C8.38575 13.7114 7.952 13.5331 7.59288 13.1765C7.23375 12.8199 7.05419 12.3853 7.05419 11.8726V5.85106C7.05419 5.69169 7.10806 5.55806 7.21581 5.45019C7.32369 5.34244 7.45738 5.28856 7.61688 5.28856C7.77625 5.28856 7.90981 5.34244 8.01756 5.45019C8.12519 5.55806 8.179 5.69169 8.179 5.85106V11.8726C8.179 12.0736 8.24656 12.2429 8.38169 12.3804C8.51681 12.5179 8.68488 12.5866 8.88588 12.5866C9.08675 12.5866 9.25475 12.5179 9.38988 12.3804C9.525 12.2429 9.59256 12.0736 9.59256 11.8726V5.48319C9.58481 4.92931 9.39244 4.46031 9.01544 4.07619C8.63844 3.69206 8.17213 3.5 7.6165 3.5C7.06325 3.5 6.59562 3.69325 6.21362 4.07975C5.83162 4.46637 5.64062 4.93656 5.64062 5.49031V12.2332C5.63287 13.1399 5.94631 13.9111 6.58094 14.5466C7.21556 15.1822 7.98594 15.5 8.89206 15.5C9.78531 15.5 10.5446 15.1822 11.17 14.5466C11.7953 13.9111 12.1156 13.1399 12.1309 12.2332V5.85106C12.1309 5.69169 12.1849 5.55806 12.2927 5.45019C12.4006 5.34244 12.5343 5.28856 12.6938 5.28856C12.8532 5.28856 12.9868 5.34244 13.0945 5.45019C13.2021 5.55806 13.2559 5.69169 13.2559 5.85106V12.2332Z" fill="#37383C" fill-opacity="0.61"/>
</g>
</svg>
