<svg width="16" height="16" viewBox="0 0 16 16" fill="none" xmlns="http://www.w3.org/2000/svg">
<mask id="mask0_252_26525" style="mask-type:alpha" maskUnits="userSpaceOnUse" x="0" y="0" width="16" height="16">
<rect width="16" height="16" fill="#D9D9D9"/>
</mask>
<g mask="url(#mask0_252_26525)">
<path d="M2.87069 13C2.53392 13 2.24886 12.8833 2.01553 12.65C1.78219 12.4167 1.66553 12.1316 1.66553 11.7948V4.20517C1.66553 3.86839 1.78219 3.58333 2.01553 3.35C2.24886 3.11667 2.53392 3 2.87069 3H6.03219C6.19286 3 6.34736 3.03122 6.49569 3.09367C6.64392 3.156 6.77275 3.24189 6.88219 3.35133L7.86419 4.33333H13.127C13.4638 4.33333 13.7489 4.45 13.9822 4.68333C14.2155 4.91667 14.3322 5.20172 14.3322 5.5385V11.7948C14.3322 12.1316 14.2155 12.4167 13.9822 12.65C13.7489 12.8833 13.4638 13 13.127 13H2.87069Z" fill="#37383C" fill-opacity="0.61"/>
</g>
</svg>
