<svg width="18" height="19" viewBox="0 0 18 19" fill="none" xmlns="http://www.w3.org/2000/svg">
<path d="M12.053 2.57472C13.0577 2.58021 14.0657 3.00426 14.7805 3.71905C15.4996 4.43812 15.9194 5.43257 15.9248 6.4466L15.9249 6.45024C15.9249 7.3114 15.6277 8.0599 15.0704 8.79271L15.0642 8.8008C14.8078 9.1276 14.4544 9.50754 13.879 10.083L13.3221 10.6399C13.0585 10.9035 12.6311 10.9035 12.3675 10.6399C12.1039 10.3763 12.1039 9.94887 12.3675 9.68526L12.9244 9.1284C13.491 8.56179 13.7956 8.23005 13.9989 7.97142C14.4125 7.42641 14.5745 6.95935 14.5749 6.4521C14.5708 5.79883 14.2965 5.14421 13.8259 4.67365C13.3601 4.20783 12.6921 3.92875 12.0475 3.92471C11.54 3.92508 11.0908 4.07818 10.5318 4.50575C10.2474 4.72624 9.91181 5.03456 9.37118 5.57519L8.8142 6.13205C8.55057 6.39562 8.12319 6.39557 7.85961 6.13194C7.59604 5.86831 7.59609 5.44092 7.85972 5.17735L8.41659 4.6206C8.96584 4.07134 9.35128 3.7126 9.70663 3.43733L9.70969 3.43496C10.4565 2.86323 11.1876 2.5747 12.0493 2.57471L12.053 2.57472Z" fill="currentColor"/>
<path d="M11.6251 6.87449C11.8887 7.13809 11.8887 7.56548 11.6251 7.82909L7.32945 12.1249C7.06585 12.3885 6.63847 12.3885 6.37486 12.1249C6.11125 11.8613 6.11125 11.4339 6.37484 11.1703L10.6705 6.87451C10.9341 6.6109 11.3615 6.61089 11.6251 6.87449Z" fill="currentColor"/>
<path d="M5.6323 8.35939C5.89593 8.62296 5.89598 9.05035 5.6324 9.31398L5.0756 9.87091C4.53497 10.4115 4.22661 10.7472 4.00612 11.0316C3.57857 11.5906 3.42546 12.0398 3.42507 12.5471C3.42908 13.1918 3.70816 13.8599 4.17401 14.3257C4.64458 14.7963 5.29922 15.0706 5.9525 15.0747C6.45973 15.0743 6.92679 14.9123 7.47176 14.4987C7.7304 14.2954 8.06214 13.9908 8.62874 13.4242L9.18561 12.8673C9.44921 12.6037 9.8766 12.6037 10.1402 12.8673C10.4038 13.1309 10.4038 13.5583 10.1402 13.8219L9.58334 14.3788C9.00789 14.9542 8.6279 15.3076 8.3011 15.564L8.2931 15.5702C7.56029 16.1276 6.81175 16.4247 5.9506 16.4247L5.94695 16.4246C4.93293 16.4192 3.93848 15.9994 3.21941 15.2803C2.50462 14.5655 2.08058 13.5575 2.07508 12.5528L2.07507 12.5491C2.07507 11.6874 2.3636 10.9563 2.93533 10.2095L2.93769 10.2064C3.21297 9.85105 3.57165 9.46568 4.1209 8.91642L4.6777 8.35949C4.94128 8.09586 5.36866 8.09581 5.6323 8.35939Z" fill="currentColor"/>
</svg>
