<svg width="18" height="18" viewBox="0 0 18 18" fill="none" xmlns="http://www.w3.org/2000/svg">
<path d="M8.99968 2.32715C9.37247 2.32715 9.67468 2.62936 9.67468 3.00215V8.32715H14.9997C15.3724 8.32715 15.6747 8.62936 15.6747 9.00215C15.6747 9.37494 15.3724 9.67715 14.9997 9.67715H9.67468V15.0021C9.67468 15.3749 9.37247 15.6771 8.99968 15.6771C8.62689 15.6771 8.32468 15.3749 8.32468 15.0021V9.67715H2.9997C2.62691 9.67715 2.32471 9.37494 2.32471 9.00215C2.32471 8.62936 2.62691 8.32715 2.9997 8.32715H8.32468V3.00215C8.32468 2.62936 8.62689 2.32715 8.99968 2.32715Z" fill="white"/>
</svg>
