<svg width="18" height="18" viewBox="0 0 18 18" fill="none" xmlns="http://www.w3.org/2000/svg">
<path d="M8.99993 2.32715C9.37272 2.32715 9.67492 2.62936 9.67492 3.00215V8.32715H14.9999C15.3727 8.32715 15.6749 8.62936 15.6749 9.00215C15.6749 9.37494 15.3727 9.67715 14.9999 9.67715H9.67492V15.0021C9.67492 15.3749 9.37272 15.6771 8.99993 15.6771C8.62713 15.6771 8.32493 15.3749 8.32493 15.0021V9.67715H2.99995C2.62716 9.67715 2.32495 9.37494 2.32495 9.00215C2.32495 8.62936 2.62716 8.32715 2.99995 8.32715H8.32493V3.00215C8.32493 2.62936 8.62713 2.32715 8.99993 2.32715Z" fill="#2E2F33" fill-opacity="0.88"/>
</svg>
