<svg width="24" height="25" viewBox="0 0 24 25" fill="none" xmlns="http://www.w3.org/2000/svg">
<path d="M11.9998 3.1001C12.2574 3.1001 12.4896 3.20826 12.6537 3.38163L17.1362 7.86419C17.4877 8.21566 17.4877 8.78551 17.1362 9.13698C16.7847 9.48845 16.2149 9.48845 15.8634 9.13698L12.8998 6.17338V15.5001C12.8998 15.9972 12.4969 16.4001 11.9998 16.4001C11.5028 16.4001 11.0998 15.9972 11.0998 15.5001V6.17338L8.13625 9.13698C7.78478 9.48845 7.21494 9.48845 6.86347 9.13698C6.512 8.78551 6.512 8.21566 6.86347 7.86419L11.346 3.38163C11.5101 3.20826 11.7423 3.1001 11.9998 3.1001Z" fill="#37383C" fill-opacity="0.61"/>
<path d="M21.15 15.4002C21.15 14.9031 20.7471 14.5002 20.25 14.5002C19.753 14.5002 19.3501 14.9031 19.3501 15.4002V17.9503C19.3501 18.7649 19.339 18.9587 19.2962 19.0902C19.1874 19.4251 18.9249 19.6876 18.59 19.7965C18.4585 19.8392 18.2646 19.8503 17.4501 19.8503H6.55011C5.73555 19.8503 5.54172 19.8392 5.4102 19.7965C5.07531 19.6876 4.81276 19.4251 4.70395 19.0902C4.66122 18.9587 4.65012 18.7649 4.65012 17.9503V15.4002C4.65012 14.9031 4.24717 14.5002 3.75011 14.5002C3.25305 14.5002 2.8501 14.9031 2.8501 15.4002V17.5857C2.85009 18.1155 2.85008 18.5668 2.88034 18.9372C2.91214 19.3263 2.98177 19.7049 3.16618 20.0669C3.44421 20.6125 3.88786 21.0562 4.43352 21.3342C4.79546 21.5186 5.17405 21.5883 5.56321 21.6201C5.93362 21.6503 6.38477 21.6503 6.91461 21.6503H17.0855C17.6153 21.6503 18.0665 21.6503 18.4369 21.6201C18.8261 21.5883 19.2047 21.5186 19.5666 21.3342C20.1123 21.0562 20.5559 20.6125 20.834 20.0669C21.0184 19.7049 21.088 19.3263 21.1198 18.9372C21.1501 18.5668 21.15 18.1156 21.15 17.5858V15.4002Z" fill="#37383C" fill-opacity="0.61"/>
</svg>
