<svg width="18" height="18" viewBox="0 0 18 18" fill="none" xmlns="http://www.w3.org/2000/svg">
<mask id="mask0_962_21098" style="mask-type:alpha" maskUnits="userSpaceOnUse" x="0" y="0" width="18" height="18">
<rect width="18" height="18" fill="#D9D9D9"/>
</mask>
<g mask="url(#mask0_962_21098)">
<path d="M8.99905 14.6222L12.0424 11.5933C12.1539 11.4818 12.2844 11.4248 12.4339 11.4223C12.5834 11.4199 12.7163 11.4769 12.8327 11.5933C12.9491 11.7097 13.0072 11.8433 13.0072 11.9942C13.0072 12.1452 12.9491 12.2788 12.8327 12.3952L9.80811 15.4312C9.58799 15.6513 9.3183 15.7614 8.99905 15.7614C8.6798 15.7614 8.41011 15.6513 8.18999 15.4312L5.1538 12.3952C5.0423 12.2836 4.9873 12.1511 4.9888 11.9977C4.99017 11.8445 5.04905 11.7097 5.16542 11.5933C5.2818 11.4769 5.41542 11.4199 5.5663 11.4223C5.7173 11.4248 5.85099 11.4818 5.96736 11.5933L8.99905 14.6222ZM8.99905 3.37778L5.96736 6.39521C5.85574 6.50671 5.72517 6.56171 5.57567 6.56021C5.42617 6.55884 5.29324 6.50384 5.17686 6.39521C5.06061 6.27884 5.00055 6.14515 4.99667 5.99415C4.9928 5.84328 5.04905 5.70965 5.16542 5.59328L8.18999 2.56871C8.41011 2.34859 8.6798 2.23853 8.99905 2.23853C9.3183 2.23853 9.58799 2.34859 9.80811 2.56871L12.8327 5.59328C12.9442 5.70478 12.9992 5.83721 12.9979 5.99059C12.9964 6.14396 12.9375 6.27884 12.8212 6.39521C12.7049 6.50384 12.5731 6.55884 12.426 6.56021C12.2789 6.56171 12.1471 6.50671 12.0307 6.39521L8.99905 3.37778Z" fill="#2E2F33" fill-opacity="0.88"/>
</g>
</svg>
