<svg width="20" height="20" viewBox="0 0 20 20" fill="none" xmlns="http://www.w3.org/2000/svg">
<mask id="mask0_21_7592" style="mask-type:alpha" maskUnits="userSpaceOnUse" x="0" y="0" width="20" height="20">
<rect width="20" height="20" fill="#D9D9D9"/>
</mask>
<g mask="url(#mask0_21_7592)">
<path d="M3.33008 12.5003C2.63563 12.5003 2.04536 12.2573 1.55924 11.7712C1.07313 11.285 0.830078 10.6948 0.830078 10.0003C0.830078 9.30588 1.07313 8.7156 1.55924 8.22949C2.04536 7.74338 2.63563 7.50033 3.33008 7.50033V5.83366C3.33008 5.37533 3.49327 4.98296 3.81966 4.65658C4.14605 4.33019 4.53841 4.16699 4.99675 4.16699H7.49675C7.49675 3.47255 7.7398 2.88227 8.22591 2.39616C8.71202 1.91005 9.3023 1.66699 9.99675 1.66699C10.6912 1.66699 11.2815 1.91005 11.7676 2.39616C12.2537 2.88227 12.4967 3.47255 12.4967 4.16699H14.9967C15.4551 4.16699 15.8474 4.33019 16.1738 4.65658C16.5002 4.98296 16.6634 5.37533 16.6634 5.83366V7.50033C17.3579 7.50033 17.9481 7.74338 18.4342 8.22949C18.9204 8.7156 19.1634 9.30588 19.1634 10.0003C19.1634 10.6948 18.9204 11.285 18.4342 11.7712C17.9481 12.2573 17.3579 12.5003 16.6634 12.5003V15.8337C16.6634 16.292 16.5002 16.6844 16.1738 17.0107C15.8474 17.3371 15.4551 17.5003 14.9967 17.5003H4.99675C4.53841 17.5003 4.14605 17.3371 3.81966 17.0107C3.49327 16.6844 3.33008 16.292 3.33008 15.8337V12.5003ZM7.49675 10.8337C7.84397 10.8337 8.13911 10.7121 8.38216 10.4691C8.62522 10.226 8.74675 9.93088 8.74675 9.58366C8.74675 9.23644 8.62522 8.9413 8.38216 8.69824C8.13911 8.45519 7.84397 8.33366 7.49675 8.33366C7.14952 8.33366 6.85438 8.45519 6.61133 8.69824C6.36827 8.9413 6.24675 9.23644 6.24675 9.58366C6.24675 9.93088 6.36827 10.226 6.61133 10.4691C6.85438 10.7121 7.14952 10.8337 7.49675 10.8337ZM12.4967 10.8337C12.844 10.8337 13.1391 10.7121 13.3822 10.4691C13.6252 10.226 13.7467 9.93088 13.7467 9.58366C13.7467 9.23644 13.6252 8.9413 13.3822 8.69824C13.1391 8.45519 12.844 8.33366 12.4967 8.33366C12.1495 8.33366 11.8544 8.45519 11.6113 8.69824C11.3683 8.9413 11.2467 9.23644 11.2467 9.58366C11.2467 9.93088 11.3683 10.226 11.6113 10.4691C11.8544 10.7121 12.1495 10.8337 12.4967 10.8337ZM6.66341 14.167H13.3301V12.5003H6.66341V14.167Z" fill="#2E2F33" fill-opacity="0.88"/>
</g>
</svg>
