<svg width="20" height="20" viewBox="0 0 20 20" fill="none" xmlns="http://www.w3.org/2000/svg">
<path d="M4.05365 4.05268C4.34655 3.75978 4.82142 3.75978 5.11431 4.05268L10.0006 8.93902L14.887 4.05268C15.1798 3.75978 15.6547 3.75978 15.9476 4.05268C16.2405 4.34557 16.2405 4.82044 15.9476 5.11334L11.0613 9.99968L15.9476 14.886C16.2405 15.1789 16.2405 15.6538 15.9476 15.9467C15.6547 16.2396 15.1798 16.2396 14.887 15.9467L10.0006 11.0603L5.11431 15.9467C4.82142 16.2396 4.34655 16.2396 4.05365 15.9467C3.76076 15.6538 3.76076 15.1789 4.05365 14.886L8.93998 9.99968L4.05365 5.11334C3.76076 4.82044 3.76076 4.34557 4.05365 4.05268Z" fill="#37383C" fill-opacity="0.61"/>
</svg>
