<svg width="24" height="24" viewBox="0 0 24 24" fill="none" xmlns="http://www.w3.org/2000/svg">
<path d="M9.99995 10.601C10.497 10.601 10.8999 11.0039 10.8999 11.501V16.501C10.8999 16.9981 10.497 17.401 9.99995 17.401C9.5029 17.401 9.09995 16.9981 9.09995 16.501V11.501C9.09995 11.0039 9.5029 10.601 9.99995 10.601Z" fill="#FF4242"/>
<path d="M13.9999 10.601C14.497 10.601 14.8999 11.0039 14.8999 11.501V16.501C14.8999 16.9981 14.497 17.401 13.9999 17.401C13.5029 17.401 13.0999 16.9981 13.0999 16.501V11.501C13.0999 11.0039 13.5029 10.601 13.9999 10.601Z" fill="#FF4242"/>
<path fill-rule="evenodd" clip-rule="evenodd" d="M19.9999 5.85139H16.3998C16.3997 5.35069 16.3985 4.92216 16.3695 4.56761C16.3378 4.17845 16.2681 3.79986 16.0837 3.43792C15.8057 2.89225 15.362 2.44861 14.8164 2.17058C14.4544 1.98616 14.0758 1.91653 13.6867 1.88473C13.3163 1.85447 12.8651 1.85448 12.3353 1.85449H11.6644C11.1346 1.85448 10.6833 1.85447 10.3129 1.88473C9.92376 1.91653 9.54517 1.98616 9.18323 2.17058C8.63757 2.44861 8.19392 2.89225 7.91589 3.43792C7.73148 3.79986 7.66184 4.17845 7.63005 4.56761C7.60108 4.92216 7.59985 5.35069 7.59981 5.85139H3.99996C3.50291 5.85139 3.09996 6.25433 3.09996 6.75139C3.09996 7.24844 3.50291 7.65139 3.99996 7.65139H4.59986L4.59986 18.0878C4.59985 18.6176 4.59984 19.0688 4.6301 19.4392C4.66189 19.8284 4.73153 20.207 4.91594 20.5689C5.19397 21.1146 5.63762 21.5582 6.18328 21.8363C6.54522 22.0207 6.92381 22.0903 7.31297 22.1221C7.68337 22.1524 8.13451 22.1524 8.66433 22.1524H15.3352C15.8651 22.1524 16.3163 22.1524 16.6867 22.1221C17.0759 22.0903 17.4545 22.0207 17.8164 21.8363C18.3621 21.5582 18.8057 21.1146 19.0837 20.5689C19.2682 20.207 19.3378 19.8284 19.3696 19.4392C19.3998 19.0688 19.3998 18.6176 19.3998 18.0878V7.65139H19.9999C20.497 7.65139 20.8999 7.24844 20.8999 6.75139C20.8999 6.25433 20.497 5.85139 19.9999 5.85139ZM14.6001 5.85139H9.40015V5.54537C9.40015 4.73081 9.41126 4.53698 9.45399 4.40545C9.5628 4.07057 9.82535 3.80802 10.1602 3.69921C10.2918 3.65648 10.4856 3.64537 11.3001 3.64537H12.7001C13.5147 3.64537 13.7085 3.65648 13.8401 3.69921C14.1749 3.80802 14.4375 4.07057 14.5463 4.40545C14.589 4.53698 14.6001 4.73081 14.6001 5.54537V5.85139ZM6.40019 18.446V7.65139H17.6002V18.446C17.6002 19.2605 17.589 19.4544 17.5463 19.5859C17.4375 19.9208 17.175 20.1833 16.8401 20.2921C16.7086 20.3349 16.5147 20.346 15.7002 20.346H8.30018C7.48562 20.346 7.29179 20.3349 7.16026 20.2921C6.82538 20.1833 6.56283 19.9208 6.45402 19.5859C6.41129 19.4544 6.40019 19.2605 6.40019 18.446Z" fill="#FF4242"/>
</svg>
