<svg width="500" height="160" viewBox="0 0 500 160" fill="none" xmlns="http://www.w3.org/2000/svg">
<rect width="500" height="160" fill="#EAEBEC"/>
<rect x="32" width="437" height="160" fill="white"/>
<g filter="url(#filter0_ddd_341_65200)">
<g clip-path="url(#clip0_341_65200)">
<rect width="65" height="30" transform="translate(50.5 23)" fill="#009E83"/>
<mask id="mask0_341_65200" style="mask-type:alpha" maskUnits="userSpaceOnUse" x="62" y="30" width="17" height="16">
<rect x="62.5" y="30" width="16" height="16" fill="#D9D9D9"/>
</mask>
<g mask="url(#mask0_341_65200)">
<path d="M70.0003 38.5001V40.6667C70.0003 40.8084 70.0483 40.9271 70.1442 41.0229C70.24 41.1188 70.3588 41.1667 70.5005 41.1667C70.6423 41.1667 70.761 41.1188 70.8567 41.0229C70.9524 40.9271 71.0003 40.8084 71.0003 40.6667V38.5001H73.167C73.3087 38.5001 73.4274 38.4521 73.5232 38.3562C73.619 38.2604 73.667 38.1416 73.667 37.9999C73.667 37.8581 73.619 37.7394 73.5232 37.6437C73.4274 37.548 73.3087 37.5001 73.167 37.5001H71.0003V35.3334C71.0003 35.1917 70.9524 35.073 70.8565 34.9772C70.7606 34.8814 70.6418 34.8334 70.5002 34.8334C70.3584 34.8334 70.2397 34.8814 70.144 34.9772C70.0482 35.073 70.0003 35.1917 70.0003 35.3334V37.5001H67.8337C67.692 37.5001 67.5733 37.548 67.4775 37.6439C67.3816 37.7398 67.3337 37.8586 67.3337 38.0002C67.3337 38.142 67.3816 38.2607 67.4775 38.3564C67.5733 38.4522 67.692 38.5001 67.8337 38.5001H70.0003ZM70.5015 44.3334C69.6255 44.3334 68.8021 44.1672 68.0313 43.8347C67.2605 43.5023 66.5901 43.0511 66.02 42.4812C65.4499 41.9114 64.9985 41.2412 64.6658 40.4707C64.3333 39.7003 64.167 38.8771 64.167 38.0012C64.167 37.1252 64.3332 36.3019 64.6657 35.5311C64.9981 34.7603 65.4493 34.0899 66.0192 33.5197C66.589 32.9496 67.2592 32.4982 68.0297 32.1656C68.8001 31.833 69.6233 31.6667 70.4992 31.6667C71.3752 31.6667 72.1985 31.833 72.9693 32.1654C73.7401 32.4979 74.4105 32.949 74.9807 33.5189C75.5508 34.0888 76.0022 34.759 76.3348 35.5294C76.6674 36.2999 76.8337 37.123 76.8337 37.9989C76.8337 38.8749 76.6674 39.6983 76.335 40.4691C76.0025 41.2399 75.5514 41.9103 74.9815 42.4804C74.4116 43.0505 73.7414 43.5019 72.971 43.8346C72.2005 44.1671 71.3774 44.3334 70.5015 44.3334ZM70.5003 43.3334C71.9892 43.3334 73.2503 42.8167 74.2837 41.7834C75.317 40.7501 75.8337 39.489 75.8337 38.0001C75.8337 36.5112 75.317 35.2501 74.2837 34.2167C73.2503 33.1834 71.9892 32.6667 70.5003 32.6667C69.0114 32.6667 67.7503 33.1834 66.717 34.2167C65.6837 35.2501 65.167 36.5112 65.167 38.0001C65.167 39.489 65.6837 40.7501 66.717 41.7834C67.7503 42.8167 69.0114 43.3334 70.5003 43.3334Z" fill="white"/>
</g>
<path d="M89.9326 39.3945H88.5234V32.6533H89.9326V39.3945ZM91.5386 36.6079H89.5327V35.459H91.5386V36.6079ZM86.7651 33.4404C86.7651 34.4391 86.5557 35.3405 86.1367 36.1445C85.7178 36.9486 85.1084 37.6383 84.3086 38.2139C83.5088 38.7894 82.5418 39.2401 81.4077 39.5659L80.8301 38.417C81.7695 38.1631 82.5693 37.8224 83.2295 37.395C83.8939 36.9634 84.3975 36.4725 84.7402 35.9224C85.083 35.368 85.2544 34.7713 85.2544 34.1323V33.4404H86.7651ZM86.105 34.583H81.3569V33.4404H86.105V34.583ZM86.2256 39.5215C86.9958 39.5215 87.6686 39.6146 88.2441 39.8008C88.8239 39.987 89.2703 40.2536 89.5835 40.6006C89.9009 40.9434 90.0596 41.3475 90.0596 41.813C90.0596 42.2869 89.9009 42.6974 89.5835 43.0444C89.2703 43.3914 88.826 43.6559 88.2505 43.8379C87.675 44.0241 87 44.1172 86.2256 44.1172C85.4554 44.1172 84.7804 44.0241 84.2007 43.8379C83.6209 43.6559 83.1724 43.3914 82.855 43.0444C82.5418 42.6974 82.3874 42.2869 82.3916 41.813C82.3874 41.3517 82.5439 40.9476 82.8613 40.6006C83.1787 40.2536 83.6273 39.987 84.207 39.8008C84.7868 39.6146 85.4596 39.5215 86.2256 39.5215ZM86.2256 40.6323C85.722 40.6281 85.2861 40.6725 84.918 40.7656C84.554 40.8587 84.2726 40.9963 84.0737 41.1782C83.8791 41.356 83.7839 41.5675 83.7881 41.813C83.7839 42.0627 83.8791 42.2785 84.0737 42.4604C84.2726 42.6382 84.554 42.7757 84.918 42.873C85.2861 42.9661 85.722 43.0127 86.2256 43.0127C86.7292 43.0127 87.165 42.9661 87.5332 42.873C87.9014 42.7757 88.1828 42.6382 88.3774 42.4604C88.5763 42.2785 88.6758 42.0627 88.6758 41.813C88.6758 41.5675 88.5763 41.356 88.3774 41.1782C88.1828 40.9963 87.9014 40.8587 87.5332 40.7656C87.165 40.6725 86.7292 40.6281 86.2256 40.6323ZM96.5833 41.3242H95.1677V39.4517H96.5833V41.3242ZM101.446 44.1172H100.024V32.6533H101.446V44.1172ZM103.058 38.563H100.976V37.395H103.058V38.563ZM92.2351 40.9434C93.7162 40.9434 95.0238 40.9243 96.158 40.8862C97.2921 40.8481 98.3775 40.755 99.4143 40.6069L99.5095 41.6479C98.7478 41.7876 97.9565 41.8892 97.1355 41.9526C96.3188 42.0161 95.5486 42.0584 94.825 42.0796C94.1013 42.1007 93.3036 42.1113 92.4319 42.1113L92.2351 40.9434ZM99.281 35.0908H92.4446V33.9736H99.281V35.0908ZM95.8914 35.6177C96.4246 35.6177 96.9028 35.7065 97.3259 35.8843C97.7491 36.062 98.0792 36.3138 98.3162 36.6396C98.5531 36.9655 98.6716 37.34 98.6716 37.7632C98.6716 38.1864 98.5531 38.5588 98.3162 38.8804C98.0792 39.202 97.7491 39.4517 97.3259 39.6294C96.9028 39.8071 96.4246 39.896 95.8914 39.896C95.3455 39.896 94.8609 39.8071 94.4377 39.6294C94.0146 39.4517 93.6845 39.202 93.4475 38.8804C93.2148 38.5588 93.1005 38.1864 93.1047 37.7632C93.1005 37.34 93.2148 36.9655 93.4475 36.6396C93.6845 36.3138 94.0146 36.062 94.4377 35.8843C94.8609 35.7065 95.3455 35.6177 95.8914 35.6177ZM95.8914 36.6968C95.5994 36.6968 95.3433 36.7391 95.1233 36.8237C94.9075 36.9084 94.7382 37.0332 94.6155 37.1982C94.497 37.359 94.4377 37.5474 94.4377 37.7632C94.4377 37.9832 94.497 38.1715 94.6155 38.3281C94.7382 38.4847 94.9075 38.6053 95.1233 38.6899C95.3391 38.7746 95.5951 38.8148 95.8914 38.8105C96.1749 38.8148 96.4246 38.7746 96.6404 38.6899C96.8562 38.6053 97.0234 38.4847 97.1418 38.3281C97.2646 38.1715 97.3259 37.9832 97.3259 37.7632C97.3259 37.5474 97.2646 37.359 97.1418 37.1982C97.0234 37.0332 96.8562 36.9084 96.6404 36.8237C96.4246 36.7391 96.1749 36.6968 95.8914 36.6968ZM96.5833 34.7734H95.1677V32.7041H96.5833V34.7734Z" fill="white"/>
<rect width="65" height="30" transform="translate(116.5 23)" fill="#FF8400"/>
<mask id="mask1_341_65200" style="mask-type:alpha" maskUnits="userSpaceOnUse" x="128" y="30" width="17" height="16">
<rect x="128.5" y="30" width="16" height="16" fill="#D9D9D9"/>
</mask>
<g mask="url(#mask1_341_65200)">
<path d="M136.5 38.6961L138.555 40.7513C138.647 40.8435 138.763 40.8885 138.903 40.8864C139.043 40.8843 139.159 40.8371 139.251 40.7448C139.343 40.6524 139.389 40.5364 139.389 40.3968C139.389 40.257 139.343 40.1409 139.251 40.0486L137.196 37.9999L139.251 35.9448C139.343 35.8524 139.389 35.7364 139.389 35.5968C139.389 35.457 139.343 35.3409 139.251 35.2486C139.159 35.1564 139.043 35.1103 138.903 35.1103C138.763 35.1103 138.647 35.1564 138.555 35.2486L136.5 37.3038L134.445 35.2486C134.352 35.1564 134.237 35.1103 134.1 35.1103C133.962 35.1103 133.847 35.1564 133.755 35.2486C133.663 35.3409 133.616 35.457 133.616 35.5968C133.616 35.7364 133.663 35.8524 133.755 35.9448L135.804 37.9999L133.748 40.0551C133.656 40.1474 133.611 40.2624 133.613 40.3999C133.615 40.5375 133.663 40.6524 133.755 40.7448C133.847 40.8371 133.963 40.8833 134.103 40.8833C134.243 40.8833 134.359 40.8371 134.451 40.7448L136.5 38.6961ZM132.038 43.6666C131.701 43.6666 131.416 43.5499 131.183 43.3166C130.95 43.0833 130.833 42.7982 130.833 42.4614V33.5384C130.833 33.2016 130.95 32.9166 131.183 32.6833C131.416 32.4499 131.701 32.3333 132.038 32.3333H140.961C141.298 32.3333 141.583 32.4499 141.816 32.6833C142.05 32.9166 142.166 33.2016 142.166 33.5384V42.4614C142.166 42.7982 142.05 43.0833 141.816 43.3166C141.583 43.5499 141.298 43.6666 140.961 43.6666H132.038ZM132.038 42.6666H140.961C141.013 42.6666 141.06 42.6452 141.102 42.6024C141.145 42.5598 141.166 42.5128 141.166 42.4614V33.5384C141.166 33.4871 141.145 33.4401 141.102 33.3974C141.06 33.3546 141.013 33.3333 140.961 33.3333H132.038C131.987 33.3333 131.94 33.3546 131.897 33.3974C131.854 33.4401 131.833 33.4871 131.833 33.5384V42.4614C131.833 42.5128 131.854 42.5598 131.897 42.6024C131.94 42.6452 131.987 42.6666 132.038 42.6666Z" fill="white"/>
</g>
<path d="M155.933 41.1084H154.523V32.666H155.933V41.1084ZM157.539 37.1411H155.514V35.9795H157.539V37.1411ZM156.383 43.9141H148.582V42.7588H156.383V43.9141ZM149.985 43.0127H148.582V40.2515H149.985V43.0127ZM148.665 35.2368H151.343V33.4849H152.752V39.2422H147.274V33.4849H148.665V35.2368ZM151.343 38.125V36.3286H148.665V38.125H151.343ZM167.42 39.5596H166.011V32.6533H167.42V39.5596ZM169.026 36.6777H167.02V35.5225H169.026V36.6777ZM167.42 44.1172H166.011V41.229H159.771V40.0991H167.42V44.1172ZM160.152 34.9956H162.831V33.3833H164.24V38.8931H158.762V33.3833H160.152V34.9956ZM162.831 37.7695V36.1001H160.152V37.7695H162.831Z" fill="white"/>
</g>
<rect x="185.5" y="23" width="65" height="30" rx="8" fill="#A459E9"/>
<mask id="mask2_341_65200" style="mask-type:alpha" maskUnits="userSpaceOnUse" x="197" y="30" width="17" height="16">
<rect x="197.5" y="30" width="16" height="16" fill="#D9D9D9"/>
</mask>
<g mask="url(#mask2_341_65200)">
<path d="M204.79 40.1869L203.728 39.1254C203.679 39.0758 203.625 39.0387 203.566 39.0139C203.507 38.9891 203.447 38.9767 203.385 38.9767C203.323 38.9767 203.26 38.9891 203.196 39.0139C203.132 39.0387 203.075 39.0758 203.026 39.1254C202.922 39.2288 202.871 39.3477 202.871 39.4819C202.871 39.616 202.922 39.7348 203.026 39.8382L204.378 41.2011C204.441 41.2634 204.506 41.3074 204.576 41.3331C204.645 41.3587 204.72 41.3716 204.8 41.3716C204.88 41.3716 204.955 41.3587 205.024 41.3331C205.094 41.3074 205.159 41.2634 205.222 41.2011L207.974 38.4484C208.073 38.3493 208.124 38.2299 208.126 38.0902C208.128 37.9504 208.078 37.8288 207.974 37.7254C207.871 37.6219 207.75 37.5702 207.613 37.5702C207.475 37.5702 207.355 37.6219 207.251 37.7254L204.79 40.1869ZM201.705 44.3344C201.368 44.3344 201.083 44.2177 200.85 43.9844C200.617 43.7511 200.5 43.466 200.5 43.1292V32.8729C200.5 32.5361 200.617 32.2511 200.85 32.0177C201.083 31.7844 201.368 31.6677 201.705 31.6677H206.501C206.662 31.6677 206.817 31.6989 206.965 31.7614C207.113 31.8237 207.242 31.9096 207.351 32.0191L210.149 34.8164C210.258 34.9258 210.344 35.0547 210.406 35.2029C210.469 35.3512 210.5 35.5057 210.5 35.6664V43.1292C210.5 43.466 210.383 43.7511 210.15 43.9844C209.917 44.2177 209.632 44.3344 209.295 44.3344H201.705ZM206.5 35.0651V32.6677H201.705C201.654 32.6677 201.607 32.6891 201.564 32.7319C201.521 32.7746 201.5 32.8216 201.5 32.8729V43.1292C201.5 43.1806 201.521 43.2276 201.564 43.2702C201.607 43.313 201.654 43.3344 201.705 43.3344H209.295C209.346 43.3344 209.393 43.313 209.436 43.2702C209.479 43.2276 209.5 43.1806 209.5 43.1292V35.6677H207.103C206.931 35.6677 206.787 35.6102 206.673 35.4952C206.558 35.3803 206.5 35.2369 206.5 35.0651Z" fill="white"/>
</g>
<path d="M224.507 34.4497H217.176V33.3198H224.507V34.4497ZM226.374 38.9438H215.887V37.8013H226.374V38.9438ZM225.085 34.2656C225.085 35.0062 225.064 35.6706 225.021 36.2588C224.983 36.847 224.884 37.5135 224.723 38.2583L223.32 38.1313C223.426 37.6362 223.504 37.1707 223.555 36.7349C223.61 36.299 223.644 35.9118 223.657 35.5732C223.669 35.2305 223.676 34.8263 223.676 34.3608V34.2656V33.3198H225.085V34.2656ZM225.421 43.895H217.239V42.7461H225.421V43.895ZM218.629 42.8794H217.239V40.042H218.629V42.8794ZM236.972 44.1172H235.57V32.6533H236.972V44.1172ZM236.23 38.29H233.138V37.1348H236.23V38.29ZM233.189 33.8721C233.185 35.0697 233.022 36.1615 232.7 37.1475C232.383 38.1292 231.844 39.0369 231.082 39.8706C230.324 40.7043 229.309 41.4364 228.035 42.0669L227.299 40.9561C228.382 40.4229 229.254 39.8198 229.914 39.147C230.574 38.4741 231.052 37.7251 231.348 36.8999C231.649 36.0747 231.801 35.1458 231.805 34.1133V33.8721H233.189ZM232.542 34.9893H227.825V33.8721H232.542V34.9893Z" fill="white"/>
<rect x="254.5" y="23" width="107" height="30" rx="8" fill="#373737"/>
<mask id="mask3_341_65200" style="mask-type:alpha" maskUnits="userSpaceOnUse" x="262" y="30" width="17" height="16">
<rect x="262.5" y="30" width="16" height="16" fill="#D9D9D9"/>
</mask>
<g mask="url(#mask3_341_65200)">
<path d="M270.496 36.8579C270.354 36.8579 270.235 36.9058 270.139 37.0014C270.044 37.0972 269.996 37.2161 269.996 37.3579V39.8246L269.114 38.9426C269.021 38.8503 268.905 38.8031 268.766 38.8009C268.626 38.7987 268.508 38.8459 268.411 38.9426C268.315 39.0392 268.266 39.1562 268.266 39.2938C268.266 39.4314 268.315 39.5486 268.411 39.6451L270.074 41.3079C270.194 41.4284 270.335 41.4886 270.496 41.4886C270.656 41.4886 270.797 41.4284 270.918 41.3079L272.58 39.6451C272.673 39.5528 272.72 39.4367 272.722 39.2969C272.724 39.1573 272.677 39.0392 272.58 38.9426C272.484 38.8459 272.367 38.7976 272.229 38.7976C272.092 38.7976 271.974 38.8459 271.878 38.9426L270.996 39.8246V37.3579C270.996 37.2161 270.948 37.0972 270.852 37.0014C270.756 36.9058 270.638 36.8579 270.496 36.8579ZM265.829 35.2681V42.4604C265.829 42.5203 265.848 42.5695 265.887 42.6079C265.925 42.6464 265.974 42.6656 266.034 42.6656H274.957C275.017 42.6656 275.066 42.6464 275.105 42.6079C275.143 42.5695 275.162 42.5203 275.162 42.4604V35.2681H265.829ZM266.086 43.6656C265.753 43.6656 265.46 43.5393 265.208 43.2868C264.955 43.0342 264.829 42.7417 264.829 42.4091V34.6694C264.829 34.5268 264.852 34.3907 264.898 34.2611C264.943 34.1317 265.012 34.0122 265.103 33.9028L266.039 32.7708C266.149 32.628 266.285 32.5192 266.45 32.4444C266.614 32.3697 266.787 32.3323 266.97 32.3323H274.009C274.191 32.3323 274.366 32.3697 274.532 32.4444C274.698 32.5192 274.836 32.628 274.946 32.7708L275.888 33.9156C275.98 34.0251 276.048 34.1456 276.094 34.2771C276.14 34.4088 276.162 34.546 276.162 34.6888V42.4091C276.162 42.7417 276.036 43.0342 275.784 43.2868C275.531 43.5393 275.238 43.6656 274.906 43.6656H266.086ZM266.089 34.2683H274.896L274.169 33.4028C274.147 33.3814 274.123 33.3643 274.095 33.3514C274.067 33.3387 274.038 33.3323 274.009 33.3323H266.977C266.947 33.3323 266.918 33.3387 266.89 33.3514C266.862 33.3643 266.838 33.3814 266.816 33.4028L266.089 34.2683Z" fill="white"/>
</g>
<path d="M291.335 39.1406H280.887V37.998H291.335V39.1406ZM286.099 39.896C286.924 39.896 287.633 39.9806 288.225 40.1499C288.818 40.3149 289.272 40.5562 289.59 40.8735C289.911 41.1909 290.072 41.5697 290.072 42.0098C290.072 42.4541 289.914 42.8328 289.596 43.146C289.283 43.4634 288.828 43.7025 288.231 43.8633C287.635 44.0283 286.924 44.1108 286.099 44.1108C285.265 44.1108 284.55 44.0283 283.953 43.8633C283.356 43.7025 282.897 43.4634 282.576 43.146C282.258 42.8328 282.1 42.4541 282.1 42.0098C282.1 41.5697 282.258 41.1909 282.576 40.8735C282.897 40.5562 283.356 40.3149 283.953 40.1499C284.554 39.9806 285.269 39.896 286.099 39.896ZM286.099 41.0005C285.54 41.0047 285.07 41.0449 284.689 41.1211C284.313 41.193 284.025 41.3052 283.826 41.4575C283.632 41.6056 283.536 41.7897 283.541 42.0098C283.536 42.2298 283.632 42.4139 283.826 42.562C284.025 42.7101 284.313 42.8223 284.689 42.8984C285.066 42.9704 285.536 43.0063 286.099 43.0063C286.649 43.0063 287.112 42.9704 287.489 42.8984C287.87 42.8223 288.16 42.7101 288.358 42.562C288.557 42.4139 288.657 42.2298 288.657 42.0098C288.657 41.7897 288.559 41.6056 288.365 41.4575C288.17 41.3052 287.88 41.193 287.495 41.1211C287.114 41.0449 286.649 41.0047 286.099 41.0005ZM286.397 34.0879C286.397 34.6719 286.211 35.203 285.838 35.6812C285.47 36.1593 284.943 36.5571 284.258 36.8745C283.572 37.1877 282.775 37.3929 281.865 37.4902L281.389 36.373C282.146 36.3011 282.811 36.1509 283.382 35.9224C283.953 35.6938 284.389 35.4209 284.689 35.1035C284.994 34.7861 285.146 34.4476 285.146 34.0879V33.7705H286.397V34.0879ZM287.057 34.0879C287.057 34.4434 287.207 34.7819 287.508 35.1035C287.812 35.4209 288.253 35.6938 288.828 35.9224C289.404 36.1509 290.076 36.3011 290.847 36.373L290.345 37.4902C289.435 37.3929 288.638 37.1877 287.952 36.8745C287.267 36.5614 286.736 36.1657 286.359 35.6875C285.986 35.2093 285.798 34.6761 285.794 34.0879V33.7705H287.057V34.0879ZM290.396 34.3481H281.833V33.2056H290.396V34.3481ZM301.972 44.1172H300.57V32.6533H301.972V44.1172ZM301.23 38.29H298.138V37.1348H301.23V38.29ZM298.189 33.8721C298.185 35.0697 298.022 36.1615 297.7 37.1475C297.383 38.1292 296.844 39.0369 296.082 39.8706C295.324 40.7043 294.309 41.4364 293.035 42.0669L292.299 40.9561C293.382 40.4229 294.254 39.8198 294.914 39.147C295.574 38.4741 296.052 37.7251 296.348 36.8999C296.649 36.0747 296.801 35.1458 296.805 34.1133V33.8721H298.189ZM297.542 34.9893H292.825V33.8721H297.542V34.9893ZM313.727 44.1172H312.394V32.6533H313.727V44.1172ZM310.458 37.7949H308.42V36.6587H310.458V37.7949ZM311.391 43.5713H310.07V32.8755H311.391V43.5713ZM307.119 35.7954C307.114 36.6672 307.015 37.5008 306.82 38.2964C306.626 39.0877 306.334 39.8008 305.944 40.4355C305.559 41.0703 305.083 41.5633 304.516 41.9146L303.646 40.8735C304.18 40.5477 304.626 40.116 304.986 39.5786C305.35 39.0412 305.616 38.4508 305.786 37.8076C305.955 37.1602 306.04 36.4894 306.04 35.7954V34.4941H307.119V35.7954ZM307.398 35.7954C307.398 36.4683 307.48 37.1115 307.646 37.7251C307.815 38.3387 308.073 38.8973 308.42 39.4009C308.767 39.9045 309.205 40.3086 309.734 40.6133L308.902 41.6479C308.327 41.3094 307.849 40.8418 307.468 40.2451C307.091 39.6442 306.81 38.9671 306.624 38.2139C306.442 37.4564 306.351 36.6502 306.351 35.7954V34.4941H307.398V35.7954ZM309.258 35.0273H304.046V33.8848H309.258V35.0273ZM321.26 40.1245H319.869V38.436H321.26V40.1245ZM325.785 38.6582H315.363V37.6108H325.785V38.6582ZM321.253 34.0181H319.863V32.6279H321.253V34.0181ZM321.018 34.3037C321.018 34.8665 320.824 35.3574 320.434 35.7764C320.045 36.1953 319.491 36.5275 318.771 36.7729C318.052 37.0184 317.199 37.1729 316.213 37.2363L315.82 36.1826C316.662 36.1445 317.379 36.0387 317.971 35.8652C318.568 35.6875 319.017 35.4653 319.317 35.1987C319.622 34.9321 319.774 34.6338 319.774 34.3037V34.0942H321.018V34.3037ZM321.348 34.3037C321.344 34.6338 321.494 34.9321 321.799 35.1987C322.104 35.4653 322.552 35.6875 323.145 35.8652C323.741 36.0387 324.463 36.1445 325.309 36.1826L324.897 37.2363C323.919 37.1729 323.071 37.0184 322.351 36.7729C321.632 36.5233 321.078 36.1911 320.688 35.7764C320.299 35.3574 320.104 34.8665 320.104 34.3037V34.0942H321.348V34.3037ZM324.77 34.6465H316.378V33.5864H324.77V34.6465ZM324.503 42.1812H317.978V43.3936H316.581V41.2227H323.107V40.5181H316.575V39.4961H324.503V42.1812ZM324.814 44.0283H316.581V42.9746H324.814V44.0283ZM334.002 41.8066H332.612V38.5186H334.002V41.8066ZM338.249 41.8066H336.827V38.5186H338.249V41.8066ZM340.674 42.7397H330.187V41.5781H340.674V42.7397ZM335.411 33.269C336.228 33.269 336.96 33.396 337.608 33.6499C338.255 33.8996 338.763 34.255 339.131 34.7163C339.499 35.1776 339.683 35.7065 339.683 36.3032C339.683 36.9041 339.499 37.4331 339.131 37.8901C338.767 38.3472 338.259 38.7026 337.608 38.9565C336.96 39.2062 336.228 39.3311 335.411 39.3311C334.586 39.3311 333.85 39.2062 333.202 38.9565C332.559 38.7026 332.053 38.3472 331.685 37.8901C331.321 37.4331 331.139 36.9041 331.139 36.3032C331.139 35.7065 331.321 35.1776 331.685 34.7163C332.053 34.255 332.559 33.8996 333.202 33.6499C333.85 33.396 334.586 33.269 335.411 33.269ZM335.411 34.3989C334.836 34.3947 334.33 34.4688 333.894 34.6211C333.458 34.7734 333.12 34.9956 332.879 35.2876C332.642 35.5754 332.523 35.9139 332.523 36.3032C332.523 36.6925 332.642 37.0332 332.879 37.3252C333.12 37.613 333.458 37.8372 333.894 37.998C334.33 38.1546 334.836 38.2329 335.411 38.2329C335.974 38.2329 336.474 38.1525 336.909 37.9917C337.345 37.8309 337.684 37.6066 337.925 37.3188C338.171 37.0311 338.293 36.6925 338.293 36.3032C338.293 35.9139 338.171 35.5754 337.925 35.2876C337.684 34.9956 337.345 34.7734 336.909 34.6211C336.474 34.4688 335.974 34.3947 335.411 34.3989ZM345.521 35.0972C345.521 35.7743 345.397 36.4048 345.147 36.9888C344.902 37.5728 344.535 38.0827 344.049 38.5186C343.562 38.9502 342.978 39.2676 342.297 39.4707L341.63 38.3789C342.214 38.2012 342.712 37.943 343.122 37.6045C343.537 37.266 343.852 36.883 344.068 36.4556C344.284 36.0239 344.392 35.5711 344.392 35.0972V34.6401H345.521V35.0972ZM345.788 35.0972C345.788 35.5288 345.898 35.9414 346.118 36.335C346.338 36.7285 346.656 37.0798 347.07 37.3887C347.489 37.6976 347.993 37.9303 348.581 38.0869L347.908 39.1724C347.223 38.9862 346.634 38.6942 346.144 38.2964C345.653 37.8986 345.278 37.4246 345.02 36.8745C344.766 36.3244 344.639 35.7319 344.639 35.0972V34.6401H345.788V35.0972ZM348.194 35.04H341.986V33.9229H348.194V35.04ZM345.807 34.3545H344.392V32.6025H345.807V34.3545ZM350.225 36.9443H347.845V35.8018H350.225V36.9443ZM351.279 39.5977H349.87V32.6533H351.279V39.5977ZM347.4 39.8262C348.204 39.8262 348.901 39.9087 349.489 40.0737C350.077 40.2345 350.528 40.4779 350.841 40.8037C351.158 41.1253 351.317 41.5104 351.317 41.959C351.317 42.4076 351.158 42.7948 350.841 43.1206C350.528 43.4465 350.077 43.6919 349.489 43.8569C348.901 44.0262 348.204 44.1108 347.4 44.1108C346.596 44.1108 345.9 44.0262 345.312 43.8569C344.728 43.6919 344.277 43.4465 343.96 43.1206C343.647 42.7948 343.49 42.4076 343.49 41.959C343.49 41.5104 343.647 41.1253 343.96 40.8037C344.277 40.4779 344.728 40.2345 345.312 40.0737C345.9 39.9087 346.596 39.8262 347.4 39.8262ZM347.4 40.9053C346.867 40.9095 346.412 40.9518 346.036 41.0322C345.663 41.1084 345.38 41.2248 345.185 41.3813C344.99 41.5379 344.893 41.7305 344.893 41.959C344.893 42.1875 344.99 42.3822 345.185 42.543C345.38 42.6995 345.663 42.8201 346.036 42.9048C346.412 42.9852 346.867 43.0275 347.4 43.0317C347.934 43.0275 348.389 42.9852 348.765 42.9048C349.142 42.8201 349.425 42.6995 349.616 42.543C349.81 42.3822 349.908 42.1875 349.908 41.959C349.908 41.7305 349.81 41.5379 349.616 41.3813C349.425 41.2248 349.142 41.1084 348.765 41.0322C348.393 40.9518 347.938 40.9095 347.4 40.9053Z" fill="white"/>
</g>
<rect x="52" y="64" width="396" height="68" rx="3" fill="#D9D9D9" fill-opacity="0.01" stroke="#00BDDE" stroke-width="2" stroke-dasharray="4 4"/>
<g filter="url(#filter1_d_341_65200)">
<path d="M456.923 145.03C457.098 145.451 456.93 147.045 456 147.414C455.07 147.784 453.882 147.414 453.882 147.414L451.726 143.102L448 146.828V130L459.414 141.414H455.162C455.37 141.814 456.7 144.495 456.923 145.03Z" fill="white"/>
<path fill-rule="evenodd" clip-rule="evenodd" d="M449 132.414V144.414L452 141.414L454.5 146.414C454.5 146.414 455.176 146.63 455.5 146.414C455.824 146.199 456.146 145.764 456 145.414C455.312 143.764 453.5 140.414 453.5 140.414H457L449 132.414Z" fill="black"/>
</g>
<path d="M71 77C71 75.3431 72.3431 74 74 74H188C189.657 74 191 75.3431 191 77V89C191 90.6569 189.657 92 188 92H74C72.3431 92 71 90.6569 71 89V77Z" fill="#70737C" fill-opacity="0.08"/>
<path d="M71 106C71 104.343 72.3431 103 74 103H416C417.657 103 419 104.343 419 106V118C419 119.657 417.657 121 416 121H74C72.3431 121 71 119.657 71 118V106Z" fill="#70737C" fill-opacity="0.08"/>
<defs>
<filter id="filter0_ddd_341_65200" x="38.5" y="17" width="335" height="54" filterUnits="userSpaceOnUse" color-interpolation-filters="sRGB">
<feFlood flood-opacity="0" result="BackgroundImageFix"/>
<feColorMatrix in="SourceAlpha" type="matrix" values="0 0 0 0 0 0 0 0 0 0 0 0 0 0 0 0 0 0 127 0" result="hardAlpha"/>
<feOffset/>
<feGaussianBlur stdDeviation="2"/>
<feComposite in2="hardAlpha" operator="out"/>
<feColorMatrix type="matrix" values="0 0 0 0 0 0 0 0 0 0 0 0 0 0 0 0 0 0 0.08 0"/>
<feBlend mode="normal" in2="BackgroundImageFix" result="effect1_dropShadow_341_65200"/>
<feColorMatrix in="SourceAlpha" type="matrix" values="0 0 0 0 0 0 0 0 0 0 0 0 0 0 0 0 0 0 127 0" result="hardAlpha"/>
<feOffset dy="4"/>
<feGaussianBlur stdDeviation="4"/>
<feComposite in2="hardAlpha" operator="out"/>
<feColorMatrix type="matrix" values="0 0 0 0 0 0 0 0 0 0 0 0 0 0 0 0 0 0 0.08 0"/>
<feBlend mode="normal" in2="effect1_dropShadow_341_65200" result="effect2_dropShadow_341_65200"/>
<feColorMatrix in="SourceAlpha" type="matrix" values="0 0 0 0 0 0 0 0 0 0 0 0 0 0 0 0 0 0 127 0" result="hardAlpha"/>
<feOffset dy="6"/>
<feGaussianBlur stdDeviation="6"/>
<feComposite in2="hardAlpha" operator="out"/>
<feColorMatrix type="matrix" values="0 0 0 0 0 0 0 0 0 0 0 0 0 0 0 0 0 0 0.12 0"/>
<feBlend mode="normal" in2="effect2_dropShadow_341_65200" result="effect3_dropShadow_341_65200"/>
<feBlend mode="normal" in="SourceGraphic" in2="effect3_dropShadow_341_65200" result="shape"/>
</filter>
<filter id="filter1_d_341_65200" x="446.2" y="129.2" width="15.0141" height="21.1784" filterUnits="userSpaceOnUse" color-interpolation-filters="sRGB">
<feFlood flood-opacity="0" result="BackgroundImageFix"/>
<feColorMatrix in="SourceAlpha" type="matrix" values="0 0 0 0 0 0 0 0 0 0 0 0 0 0 0 0 0 0 127 0" result="hardAlpha"/>
<feOffset dy="1"/>
<feGaussianBlur stdDeviation="0.9"/>
<feColorMatrix type="matrix" values="0 0 0 0 0 0 0 0 0 0 0 0 0 0 0 0 0 0 0.65 0"/>
<feBlend mode="normal" in2="BackgroundImageFix" result="effect1_dropShadow_341_65200"/>
<feBlend mode="normal" in="SourceGraphic" in2="effect1_dropShadow_341_65200" result="shape"/>
</filter>
<clipPath id="clip0_341_65200">
<rect x="50.5" y="23" width="131" height="30" rx="8" fill="white"/>
</clipPath>
</defs>
</svg>
