<svg width="16" height="16" viewBox="0 0 16 16" fill="none" xmlns="http://www.w3.org/2000/svg">
<mask id="mask0_962_21138" style="mask-type:alpha" maskUnits="userSpaceOnUse" x="0" y="0" width="16" height="16">
<rect width="16" height="16" fill="#D9D9D9"/>
</mask>
<g mask="url(#mask0_962_21138)">
<path d="M7.50008 8.50008V10.6667C7.50008 10.8084 7.54803 10.9271 7.64391 11.0229C7.7398 11.1188 7.85858 11.1667 8.00025 11.1667C8.14203 11.1667 8.26075 11.1188 8.35641 11.0229C8.45219 10.9271 8.50008 10.8084 8.50008 10.6667V8.50008H10.6667C10.8084 8.50008 10.9271 8.45214 11.0229 8.35625C11.1188 8.26036 11.1667 8.14158 11.1667 7.99991C11.1667 7.85814 11.1188 7.73941 11.0229 7.64375C10.9271 7.54797 10.8084 7.50008 10.6667 7.50008H8.50008V5.33341C8.50008 5.19175 8.45214 5.07303 8.35625 4.97725C8.26036 4.88136 8.14158 4.83341 7.99991 4.83341C7.85814 4.83341 7.73941 4.88136 7.64375 4.97725C7.54797 5.07303 7.50008 5.19175 7.50008 5.33341V7.50008H5.33341C5.19175 7.50008 5.07303 7.54803 4.97725 7.64391C4.88136 7.7398 4.83341 7.85858 4.83341 8.00025C4.83341 8.14203 4.88136 8.26075 4.97725 8.35641C5.07303 8.45219 5.19175 8.50008 5.33341 8.50008H7.50008ZM8.00125 14.3334C7.12525 14.3334 6.30186 14.1672 5.53108 13.8347C4.7603 13.5023 4.08986 13.0511 3.51975 12.4812C2.94964 11.9114 2.49825 11.2412 2.16558 10.4707C1.83303 9.7003 1.66675 8.87714 1.66675 8.00125C1.66675 7.12525 1.83297 6.30186 2.16541 5.53108C2.49786 4.7603 2.94903 4.08986 3.51891 3.51975C4.0888 2.94964 4.75897 2.49825 5.52941 2.16558C6.29986 1.83303 7.12303 1.66675 7.99891 1.66675C8.87491 1.66675 9.6983 1.83297 10.4691 2.16541C11.2399 2.49786 11.9103 2.94903 12.4804 3.51891C13.0505 4.0888 13.5019 4.75897 13.8346 5.52941C14.1671 6.29986 14.3334 7.12303 14.3334 7.99891C14.3334 8.87491 14.1672 9.6983 13.8347 10.4691C13.5023 11.2399 13.0511 11.9103 12.4812 12.4804C11.9114 13.0505 11.2412 13.5019 10.4707 13.8346C9.7003 14.1671 8.87714 14.3334 8.00125 14.3334Z" fill="#00AE90"/>
</g>
</svg>
