<svg width="16" height="16" viewBox="0 0 16 16" fill="none" xmlns="http://www.w3.org/2000/svg">
<mask id="mask0_928_10138" style="mask-type:alpha" maskUnits="userSpaceOnUse" x="0" y="0" width="16" height="16">
<rect width="16" height="16" fill="#D9D9D9"/>
</mask>
<g mask="url(#mask0_928_10138)">
<path d="M7.49984 8.50008V10.6667C7.49984 10.8084 7.54778 10.9271 7.64367 11.0229C7.73956 11.1188 7.85834 11.1667 8 11.1667C8.14178 11.1667 8.2605 11.1188 8.35617 11.0229C8.45195 10.9271 8.49984 10.8084 8.49984 10.6667V8.50008H10.6665C10.8082 8.50008 10.9269 8.45214 11.0227 8.35625C11.1186 8.26036 11.1665 8.14158 11.1665 7.99991C11.1665 7.85814 11.1186 7.73941 11.0227 7.64375C10.9269 7.54797 10.8082 7.50008 10.6665 7.50008H8.49984V5.33341C8.49984 5.19175 8.45189 5.07303 8.356 4.97725C8.26011 4.88136 8.14134 4.83341 7.99967 4.83341C7.85789 4.83341 7.73917 4.88136 7.6435 4.97725C7.54773 5.07303 7.49984 5.19175 7.49984 5.33341V7.50008H5.33317C5.1915 7.50008 5.07278 7.54803 4.977 7.64391C4.88111 7.7398 4.83317 7.85858 4.83317 8.00025C4.83317 8.14203 4.88111 8.26075 4.977 8.35641C5.07278 8.45219 5.1915 8.50008 5.33317 8.50008H7.49984ZM8.001 14.3334C7.125 14.3334 6.30161 14.1672 5.53084 13.8347C4.76006 13.5023 4.08961 13.0511 3.5195 12.4812C2.94939 11.9114 2.498 11.2412 2.16534 10.4707C1.83278 9.7003 1.6665 8.87714 1.6665 8.00125C1.6665 7.12525 1.83273 6.30186 2.16517 5.53108C2.49761 4.7603 2.94878 4.08986 3.51867 3.51975C4.08856 2.94964 4.75873 2.49825 5.52917 2.16558C6.29961 1.83303 7.12278 1.66675 7.99867 1.66675C8.87467 1.66675 9.69806 1.83297 10.4688 2.16541C11.2396 2.49786 11.9101 2.94903 12.4802 3.51891C13.0503 4.0888 13.5017 4.75897 13.8343 5.52941C14.1669 6.29986 14.3332 7.12303 14.3332 7.99891C14.3332 8.87491 14.1669 9.6983 13.8345 10.4691C13.5021 11.2399 13.0509 11.9103 12.481 12.4804C11.9111 13.0505 11.2409 13.5019 10.4705 13.8346C9.70006 14.1671 8.87689 14.3334 8.001 14.3334Z" fill="#00AE90"/>
</g>
</svg>
