<svg width="16" height="16" viewBox="0 0 16 16" fill="none" xmlns="http://www.w3.org/2000/svg">
<mask id="mask0_252_26508" style="mask-type:alpha" maskUnits="userSpaceOnUse" x="0" y="0" width="16" height="16">
<rect width="16" height="16" fill="#D9D9D9"/>
</mask>
<g mask="url(#mask0_252_26508)">
<path d="M4.20517 14.3334C3.86839 14.3334 3.58333 14.2167 3.35 13.9834C3.11667 13.7501 3 13.465 3 13.1282V2.87191C3 2.53514 3.11667 2.25008 3.35 2.01675C3.58333 1.78341 3.86839 1.66675 4.20517 1.66675H9.00133C9.162 1.66675 9.3165 1.69797 9.46483 1.76041C9.61306 1.82275 9.74189 1.90864 9.85133 2.01808L12.6487 4.81541C12.7581 4.92486 12.844 5.05369 12.9063 5.20191C12.9688 5.35025 13 5.50475 13 5.66541V13.1282C13 13.465 12.8833 13.7501 12.65 13.9834C12.4167 14.2167 12.1316 14.3334 11.7948 14.3334H4.20517ZM9 5.06408C9 5.23597 9.0575 5.37936 9.1725 5.49425C9.28739 5.60925 9.43078 5.66675 9.60267 5.66675H12L9 2.66675V5.06408ZM7.28967 10.1859L6.22817 9.12441C6.17861 9.07486 6.12456 9.03769 6.066 9.01291C6.00744 8.98814 5.94722 8.97575 5.88533 8.97575C5.82333 8.97575 5.76028 8.98814 5.69617 9.01291C5.63206 9.03769 5.57522 9.07486 5.52567 9.12441C5.42222 9.22786 5.3705 9.34669 5.3705 9.48091C5.3705 9.61503 5.42222 9.7338 5.52567 9.83725L6.87817 11.2001C6.94061 11.2624 7.00644 11.3064 7.07567 11.3321C7.14489 11.3577 7.21967 11.3706 7.3 11.3706C7.38033 11.3706 7.45511 11.3577 7.52433 11.3321C7.59356 11.3064 7.65939 11.2624 7.72183 11.2001L10.4743 8.44741C10.5734 8.3483 10.6241 8.22891 10.6263 8.08925C10.6284 7.94947 10.5778 7.82786 10.4743 7.72441C10.3709 7.62097 10.2504 7.56925 10.1128 7.56925C9.97528 7.56925 9.85478 7.62097 9.75133 7.72441L7.28967 10.1859Z" fill="currentColor"/>
</g>
</svg>
