<svg width="14" height="14" viewBox="0 0 14 14" fill="none" xmlns="http://www.w3.org/2000/svg">
<path d="M6.99975 1.81006C7.2897 1.81006 7.52475 2.04511 7.52475 2.33506V6.47673H11.6664C11.9564 6.47673 12.1914 6.71178 12.1914 7.00172C12.1914 7.29167 11.9564 7.52672 11.6664 7.52672H7.52475V11.6684C7.52475 11.9583 7.2897 12.1934 6.99975 12.1934C6.7098 12.1934 6.47475 11.9583 6.47475 11.6684V7.52672H2.3331C2.04316 7.52672 1.80811 7.29167 1.80811 7.00172C1.80811 6.71178 2.04316 6.47673 2.3331 6.47673H6.47475V2.33506C6.47475 2.04511 6.7098 1.81006 6.99975 1.81006Z" fill="currentColor"/>
</svg>
