<svg width="16" height="16" viewBox="0 0 16 16" fill="none" xmlns="http://www.w3.org/2000/svg">
<mask id="mask0_928_4505" style="mask-type:alpha" maskUnits="userSpaceOnUse" x="0" y="0" width="16" height="16">
<rect width="16" height="16" fill="#D9D9D9"/>
</mask>
<g mask="url(#mask0_928_4505)">
<path d="M8.00016 8.69633L10.0553 10.7515C10.1477 10.8437 10.2637 10.8888 10.4033 10.8867C10.5431 10.8846 10.6592 10.8373 10.7515 10.745C10.8437 10.6527 10.8898 10.5367 10.8898 10.397C10.8898 10.2572 10.8437 10.1412 10.7515 10.0488L8.69633 8.00016L10.7515 5.945C10.8437 5.85266 10.8898 5.73666 10.8898 5.597C10.8898 5.45722 10.8437 5.34116 10.7515 5.24883C10.6592 5.15661 10.5431 5.1105 10.4033 5.1105C10.2637 5.1105 10.1477 5.15661 10.0553 5.24883L8.00016 7.304L5.945 5.24883C5.85266 5.15661 5.73772 5.1105 5.60016 5.1105C5.46261 5.1105 5.34766 5.15661 5.25533 5.24883C5.163 5.34116 5.11683 5.45722 5.11683 5.597C5.11683 5.73666 5.163 5.85266 5.25533 5.945L7.304 8.00016L5.24883 10.0553C5.15661 10.1477 5.11155 10.2626 5.11366 10.4002C5.11577 10.5377 5.163 10.6527 5.25533 10.745C5.34766 10.8373 5.46366 10.8835 5.60333 10.8835C5.74311 10.8835 5.85916 10.8373 5.9515 10.745L8.00016 8.69633ZM3.53866 13.6668C3.20188 13.6668 2.91683 13.5502 2.6835 13.3168C2.45016 13.0835 2.3335 12.7984 2.3335 12.4617V3.53866C2.3335 3.20188 2.45016 2.91683 2.6835 2.6835C2.91683 2.45016 3.20188 2.3335 3.53866 2.3335H12.4617C12.7984 2.3335 13.0835 2.45016 13.3168 2.6835C13.5502 2.91683 13.6668 3.20188 13.6668 3.53866V12.4617C13.6668 12.7984 13.5502 13.0835 13.3168 13.3168C13.0835 13.5502 12.7984 13.6668 12.4617 13.6668H3.53866Z" fill="#FF8400"/>
</g>
</svg>
