<svg width="16" height="16" viewBox="0 0 16 16" fill="none" xmlns="http://www.w3.org/2000/svg">
<mask id="mask0_962_21144" style="mask-type:alpha" maskUnits="userSpaceOnUse" x="0" y="0" width="16" height="16">
<rect width="16" height="16" fill="#D9D9D9"/>
</mask>
<g mask="url(#mask0_962_21144)">
<path d="M7.99992 8.69608L10.0551 10.7513C10.1474 10.8435 10.2634 10.8885 10.4031 10.8864C10.5429 10.8843 10.6589 10.8371 10.7513 10.7448C10.8435 10.6524 10.8896 10.5364 10.8896 10.3968C10.8896 10.257 10.8435 10.1409 10.7513 10.0486L8.69609 7.99992L10.7513 5.94475C10.8435 5.85242 10.8896 5.73642 10.8896 5.59675C10.8896 5.45697 10.8435 5.34092 10.7513 5.24858C10.6589 5.15636 10.5429 5.11025 10.4031 5.11025C10.2634 5.11025 10.1474 5.15636 10.0551 5.24858L7.99992 7.30375L5.94475 5.24858C5.85242 5.15636 5.73747 5.11025 5.59992 5.11025C5.46236 5.11025 5.34742 5.15636 5.25509 5.24858C5.16275 5.34092 5.11659 5.45697 5.11659 5.59675C5.11659 5.73642 5.16275 5.85242 5.25509 5.94475L7.30375 7.99992L5.24859 10.0551C5.15636 10.1474 5.11131 10.2624 5.11342 10.3999C5.11553 10.5375 5.16275 10.6524 5.25509 10.7448C5.34742 10.8371 5.46342 10.8833 5.60309 10.8833C5.74286 10.8833 5.85892 10.8371 5.95125 10.7448L7.99992 8.69608ZM3.53842 13.6666C3.20164 13.6666 2.91659 13.5499 2.68325 13.3166C2.44992 13.0833 2.33325 12.7982 2.33325 12.4614V3.53842C2.33325 3.20164 2.44992 2.91659 2.68325 2.68325C2.91659 2.44992 3.20164 2.33325 3.53842 2.33325H12.4614C12.7982 2.33325 13.0833 2.44992 13.3166 2.68325C13.5499 2.91659 13.6666 3.20164 13.6666 3.53842V12.4614C13.6666 12.7982 13.5499 13.0833 13.3166 13.3166C13.0833 13.5499 12.7982 13.6666 12.4614 13.6666H3.53842Z" fill="#FF8400"/>
</g>
</svg>
